# xmcd
#
# Track frame offsets: 
#        150
#        19072
#        42456
#        62644
#        79579
#        98215
#        116122
#        132261
#        143868
#        163271
#        187303
#        198069
#
# Disc length: 2834 seconds
#
# Revision: 0
# Processed by: cddbd v1.5.2PL0 Copyright (c) Steve Scherf et al.
# Submitted via: ExactAudioCopyFreeDBPlugin 1.0
#
DISCID=ab0b100c
DTITLE=Karen Gibson Roc - Touching The Soul
DYEAR=2008
DGENRE=Soul
TTITLE0=Painted Room
TTITLE1=Stranger Are The Days
TTITLE2=Looking For The Light
TTITLE3=Who
TTITLE4=So I Say
TTITLE5=Letter To Myself
TTITLE6=Some Other Place
TTITLE7=It's Time For Less Talk
TTITLE8=Live Awake
TTITLE9=Heaven
TTITLE10=Herstory
TTITLE11=What If?
EXTD=
EXTT0=
EXTT1=
EXTT2=
EXTT3=
EXTT4=
EXTT5=
EXTT6=
EXTT7=
EXTT8=
EXTT9=
EXTT10=
EXTT11=
PLAYORDER=
